<?xml version="1.0" encoding="utf-8"?>
<svg xmlns="http://www.w3.org/2000/svg" xmlns:xlink="http://www.w3.org/1999/xlink" width="600" height="400" viewBox="0 0 2400 1600">
<defs>
  <clipPath id="clip900">
    <rect x="0" y="0" width="2400" height="1600"/>
  </clipPath>
</defs>
<path clip-path="url(#clip900)" d="
M0 1600 L2400 1600 L2400 0 L0 0  Z
  " fill="#ffffff" fill-rule="evenodd" fill-opacity="1"/>
<defs>
  <clipPath id="clip901">
    <rect x="480" y="0" width="1681" height="1600"/>
  </clipPath>
</defs>
<defs>
  <clipPath id="clip902">
    <rect x="236" y="47" width="2118" height="1389"/>
  </clipPath>
</defs>
<path clip-path="url(#clip900)" d="
M236.172 1435.35 L2352.76 1435.35 L2352.76 47.2441 L236.172 47.2441  Z
  " fill="#ffffff" fill-rule="evenodd" fill-opacity="1"/>
<polyline clip-path="url(#clip902)" style="stroke:#000000; stroke-width:2; stroke-opacity:0.1; fill:none" points="
  262.232,1435.35 262.232,47.2441 
  "/>
<polyline clip-path="url(#clip902)" style="stroke:#000000; stroke-width:2; stroke-opacity:0.1; fill:none" points="
  939.105,1435.35 939.105,47.2441 
  "/>
<polyline clip-path="url(#clip902)" style="stroke:#000000; stroke-width:2; stroke-opacity:0.1; fill:none" points="
  1615.98,1435.35 1615.98,47.2441 
  "/>
<polyline clip-path="url(#clip902)" style="stroke:#000000; stroke-width:2; stroke-opacity:0.1; fill:none" points="
  2292.85,1435.35 2292.85,47.2441 
  "/>
<polyline clip-path="url(#clip902)" style="stroke:#000000; stroke-width:2; stroke-opacity:0.1; fill:none" points="
  236.172,1285.76 2352.76,1285.76 
  "/>
<polyline clip-path="url(#clip902)" style="stroke:#000000; stroke-width:2; stroke-opacity:0.1; fill:none" points="
  236.172,886.672 2352.76,886.672 
  "/>
<polyline clip-path="url(#clip902)" style="stroke:#000000; stroke-width:2; stroke-opacity:0.1; fill:none" points="
  236.172,487.588 2352.76,487.588 
  "/>
<polyline clip-path="url(#clip902)" style="stroke:#000000; stroke-width:2; stroke-opacity:0.1; fill:none" points="
  236.172,88.503 2352.76,88.503 
  "/>
<polyline clip-path="url(#clip900)" style="stroke:#000000; stroke-width:4; stroke-opacity:1; fill:none" points="
  236.172,1435.35 2352.76,1435.35 
  "/>
<polyline clip-path="url(#clip900)" style="stroke:#000000; stroke-width:4; stroke-opacity:1; fill:none" points="
  236.172,1435.35 236.172,47.2441 
  "/>
<polyline clip-path="url(#clip900)" style="stroke:#000000; stroke-width:4; stroke-opacity:1; fill:none" points="
  262.232,1435.35 262.232,1418.7 
  "/>
<polyline clip-path="url(#clip900)" style="stroke:#000000; stroke-width:4; stroke-opacity:1; fill:none" points="
  939.105,1435.35 939.105,1418.7 
  "/>
<polyline clip-path="url(#clip900)" style="stroke:#000000; stroke-width:4; stroke-opacity:1; fill:none" points="
  1615.98,1435.35 1615.98,1418.7 
  "/>
<polyline clip-path="url(#clip900)" style="stroke:#000000; stroke-width:4; stroke-opacity:1; fill:none" points="
  2292.85,1435.35 2292.85,1418.7 
  "/>
<polyline clip-path="url(#clip900)" style="stroke:#000000; stroke-width:4; stroke-opacity:1; fill:none" points="
  236.172,1285.76 261.571,1285.76 
  "/>
<polyline clip-path="url(#clip900)" style="stroke:#000000; stroke-width:4; stroke-opacity:1; fill:none" points="
  236.172,886.672 261.571,886.672 
  "/>
<polyline clip-path="url(#clip900)" style="stroke:#000000; stroke-width:4; stroke-opacity:1; fill:none" points="
  236.172,487.588 261.571,487.588 
  "/>
<polyline clip-path="url(#clip900)" style="stroke:#000000; stroke-width:4; stroke-opacity:1; fill:none" points="
  236.172,88.503 261.571,88.503 
  "/>
<path clip-path="url(#clip900)" d="M 0 0 M250.357 1463.98 Q250.357 1456.93 252.137 1453.09 Q254.62 1447.37 260.475 1447.37 Q261.717 1447.37 263.005 1447.73 Q264.316 1448.05 265.956 1449.34 Q267.619 1450.63 268.626 1452.74 Q270.547 1456.81 270.547 1463.98 Q270.547 1470.98 268.767 1474.8 Q266.167 1480.38 260.428 1480.38 Q258.273 1480.38 256.072 1479.28 Q253.893 1478.18 252.512 1475.53 Q250.357 1471.57 250.357 1463.98 M254.338 1463.4 Q254.338 1470.63 254.854 1473.51 Q255.439 1476.63 257.032 1477.99 Q258.648 1479.32 260.428 1479.32 Q262.349 1479.32 263.942 1477.89 Q265.558 1476.44 266.05 1473.33 Q266.588 1470.26 266.565 1463.4 Q266.565 1456.72 266.097 1454.05 Q265.464 1450.94 263.778 1449.69 Q262.115 1448.43 260.428 1448.43 Q259.796 1448.43 259.117 1448.62 Q258.461 1448.8 257.501 1449.34 Q256.54 1449.88 255.791 1451.22 Q255.065 1452.55 254.713 1454.57 Q254.338 1457.17 254.338 1463.4 Z" fill="#000000" fill-rule="evenodd" fill-opacity="1" /><path clip-path="url(#clip900)" d="M 0 0 M915.355 1479.32 Q915.355 1478.46 915.426 1478.2 Q915.519 1477.94 915.894 1477.54 L925.099 1467.28 Q930.135 1461.62 930.135 1456.67 Q930.135 1453.46 928.448 1451.17 Q926.785 1448.87 923.717 1448.87 Q921.609 1448.87 919.829 1450.16 Q918.049 1451.45 917.229 1453.75 Q917.37 1453.7 917.862 1453.7 Q919.056 1453.7 919.712 1454.45 Q920.391 1455.2 920.391 1456.21 Q920.391 1457.49 919.548 1458.13 Q918.728 1458.73 917.908 1458.73 Q917.58 1458.73 917.135 1458.66 Q916.714 1458.59 916.035 1457.94 Q915.355 1457.26 915.355 1456.06 Q915.355 1452.72 917.885 1450.05 Q920.438 1447.37 924.326 1447.37 Q928.73 1447.37 931.61 1450 Q934.515 1452.6 934.515 1456.67 Q934.515 1458.1 934.07 1459.41 Q933.648 1460.7 933.063 1461.71 Q932.501 1462.72 930.955 1464.33 Q929.409 1465.95 928.167 1467.1 Q926.926 1468.24 924.139 1470.68 L919.056 1475.62 L927.699 1475.62 Q931.915 1475.62 932.243 1475.25 Q932.711 1474.57 933.297 1470.98 L934.515 1470.98 L933.156 1479.32 L915.355 1479.32 Z" fill="#000000" fill-rule="evenodd" fill-opacity="1" /><path clip-path="url(#clip900)" d="M 0 0 M939.105 1463.98 Q939.105 1456.93 940.885 1453.09 Q943.368 1447.37 949.224 1447.37 Q950.465 1447.37 951.753 1447.73 Q953.065 1448.05 954.705 1449.34 Q956.368 1450.63 957.375 1452.74 Q959.295 1456.81 959.295 1463.98 Q959.295 1470.98 957.515 1474.8 Q954.915 1480.38 949.177 1480.38 Q947.022 1480.38 944.82 1479.28 Q942.642 1478.18 941.26 1475.53 Q939.105 1471.57 939.105 1463.98 M943.087 1463.4 Q943.087 1470.63 943.602 1473.51 Q944.188 1476.63 945.781 1477.99 Q947.397 1479.32 949.177 1479.32 Q951.098 1479.32 952.69 1477.89 Q954.306 1476.44 954.798 1473.33 Q955.337 1470.26 955.314 1463.4 Q955.314 1456.72 954.845 1454.05 Q954.213 1450.94 952.526 1449.69 Q950.863 1448.43 949.177 1448.43 Q948.545 1448.43 947.865 1448.62 Q947.209 1448.8 946.249 1449.34 Q945.289 1449.88 944.539 1451.22 Q943.813 1452.55 943.462 1454.57 Q943.087 1457.17 943.087 1463.4 Z" fill="#000000" fill-rule="evenodd" fill-opacity="1" /><path clip-path="url(#clip900)" d="M 0 0 M1592.23 1471.95 L1592.23 1470.48 L1606.96 1447.97 Q1607.34 1447.38 1607.92 1447.41 Q1608.46 1447.41 1608.58 1447.62 Q1608.69 1447.83 1608.69 1448.65 L1608.69 1470.48 L1613.5 1470.48 L1613.5 1471.95 L1608.69 1471.95 L1608.69 1476.12 Q1608.69 1477.5 1609.26 1477.95 Q1609.84 1478.39 1612.33 1478.39 L1613.33 1478.39 L1613.33 1479.87 Q1611.37 1479.73 1606.82 1479.73 Q1602.3 1479.73 1600.33 1479.87 L1600.33 1478.39 L1601.34 1478.39 Q1603.82 1478.39 1604.41 1477.97 Q1604.99 1477.53 1604.99 1476.12 L1604.99 1471.95 L1592.23 1471.95 M1593.59 1470.48 L1605.28 1470.48 L1605.28 1452.58 L1593.59 1470.48 Z" fill="#000000" fill-rule="evenodd" fill-opacity="1" /><path clip-path="url(#clip900)" d="M 0 0 M1615.98 1464.53 Q1615.98 1457.48 1617.76 1453.64 Q1620.24 1447.92 1626.1 1447.92 Q1627.34 1447.92 1628.63 1448.27 Q1629.94 1448.6 1631.58 1449.89 Q1633.24 1451.18 1634.25 1453.29 Q1636.17 1457.36 1636.17 1464.53 Q1636.17 1471.53 1634.39 1475.35 Q1631.79 1480.92 1626.05 1480.92 Q1623.9 1480.92 1621.69 1479.82 Q1619.52 1478.72 1618.13 1476.08 Q1615.98 1472.12 1615.98 1464.53 M1619.96 1463.94 Q1619.96 1471.18 1620.48 1474.06 Q1621.06 1477.18 1622.65 1478.53 Q1624.27 1479.87 1626.05 1479.87 Q1627.97 1479.87 1629.56 1478.44 Q1631.18 1476.99 1631.67 1473.87 Q1632.21 1470.81 1632.19 1463.94 Q1632.19 1457.27 1631.72 1454.6 Q1631.09 1451.48 1629.4 1450.24 Q1627.74 1448.98 1626.05 1448.98 Q1625.42 1448.98 1624.74 1449.16 Q1624.08 1449.35 1623.12 1449.89 Q1622.16 1450.43 1621.41 1451.76 Q1620.69 1453.1 1620.34 1455.11 Q1619.96 1457.71 1619.96 1463.94 Z" fill="#000000" fill-rule="evenodd" fill-opacity="1" /><path clip-path="url(#clip900)" d="M 0 0 M2269.1 1464.17 Q2269.1 1456.63 2272.94 1452.01 Q2276.79 1447.37 2281.73 1447.37 Q2284.61 1447.37 2286.2 1448.85 Q2287.82 1450.3 2287.82 1452.55 Q2287.82 1453.79 2287.09 1454.33 Q2286.36 1454.87 2285.62 1454.87 Q2284.75 1454.87 2284.07 1454.28 Q2283.39 1453.7 2283.39 1452.65 Q2283.39 1450.49 2286.04 1450.49 Q2284.8 1448.57 2281.82 1448.57 Q2280.91 1448.57 2279.97 1448.85 Q2279.03 1449.11 2277.82 1450 Q2276.6 1450.89 2275.66 1452.29 Q2274.72 1453.7 2274.07 1456.35 Q2273.41 1458.99 2273.41 1462.44 L2273.41 1463.58 Q2275.38 1458.83 2279.41 1458.85 Q2283.44 1458.85 2286.22 1461.92 Q2289.01 1464.99 2289.01 1469.53 Q2289.01 1474.19 2286.11 1477.29 Q2283.2 1480.38 2279.13 1480.38 Q2277.3 1480.38 2275.64 1479.6 Q2274 1478.85 2272.45 1477.12 Q2270.93 1475.39 2270.02 1472.06 Q2269.1 1468.74 2269.1 1464.17 M2273.51 1468.48 Q2273.51 1473.19 2274.37 1475.44 Q2274.51 1475.81 2274.82 1476.33 Q2275.15 1476.84 2275.68 1477.52 Q2276.25 1478.18 2277.16 1478.62 Q2278.07 1479.04 2279.13 1479.04 Q2282.34 1479.04 2283.88 1475.93 Q2284.7 1474.19 2284.7 1469.49 Q2284.7 1464.68 2283.84 1462.93 Q2282.36 1459.95 2279.36 1459.95 Q2277.35 1459.95 2275.94 1461.33 Q2274.56 1462.72 2274.02 1464.57 Q2273.51 1466.42 2273.51 1468.48 Z" fill="#000000" fill-rule="evenodd" fill-opacity="1" /><path clip-path="url(#clip900)" d="M 0 0 M2292.85 1463.98 Q2292.85 1456.93 2294.63 1453.09 Q2297.12 1447.37 2302.97 1447.37 Q2304.21 1447.37 2305.5 1447.73 Q2306.81 1448.05 2308.45 1449.34 Q2310.11 1450.63 2311.12 1452.74 Q2313.04 1456.81 2313.04 1463.98 Q2313.04 1470.98 2311.26 1474.8 Q2308.66 1480.38 2302.92 1480.38 Q2300.77 1480.38 2298.57 1479.28 Q2296.39 1478.18 2295.01 1475.53 Q2292.85 1471.57 2292.85 1463.98 M2296.83 1463.4 Q2296.83 1470.63 2297.35 1473.51 Q2297.94 1476.63 2299.53 1477.99 Q2301.14 1479.32 2302.92 1479.32 Q2304.84 1479.32 2306.44 1477.89 Q2308.05 1476.44 2308.55 1473.33 Q2309.08 1470.26 2309.06 1463.4 Q2309.06 1456.72 2308.59 1454.05 Q2307.96 1450.94 2306.27 1449.69 Q2304.61 1448.43 2302.92 1448.43 Q2302.29 1448.43 2301.61 1448.62 Q2300.96 1448.8 2300 1449.34 Q2299.04 1449.88 2298.29 1451.22 Q2297.56 1452.55 2297.21 1454.57 Q2296.83 1457.17 2296.83 1463.4 Z" fill="#000000" fill-rule="evenodd" fill-opacity="1" /><path clip-path="url(#clip900)" d="M 0 0 M109.366 1316.45 L107.051 1316.45 L107.028 1309.48 Q104.597 1309.44 102.167 1308.93 Q99.7363 1308.4 97.2826 1307.35 L97.2826 1303.19 Q99.6437 1304.67 102.051 1305.43 Q104.482 1306.17 107.051 1306.2 L107.051 1295.64 Q101.935 1294.81 99.5974 1292.82 Q97.2826 1290.83 97.2826 1287.35 Q97.2826 1283.58 99.8057 1281.41 Q102.329 1279.23 107.051 1278.91 L107.051 1273.47 L109.366 1273.47 L109.366 1278.84 Q111.519 1278.93 113.533 1279.3 Q115.546 1279.65 117.468 1280.27 L117.468 1284.32 Q115.546 1283.35 113.509 1282.82 Q111.495 1282.29 109.366 1282.19 L109.366 1292.08 Q114.62 1292.89 117.097 1294.97 Q119.574 1297.05 119.574 1300.66 Q119.574 1304.58 116.935 1306.85 Q114.32 1309.09 109.366 1309.44 L109.366 1316.45 M107.051 1291.66 L107.051 1282.17 Q104.366 1282.47 102.954 1283.7 Q101.542 1284.92 101.542 1286.96 Q101.542 1288.95 102.838 1290.06 Q104.158 1291.17 107.051 1291.66 M109.366 1296.1 L109.366 1306.13 Q112.306 1305.73 113.787 1304.46 Q115.292 1303.19 115.292 1301.1 Q115.292 1299.07 113.857 1297.86 Q112.445 1296.66 109.366 1296.1 Z" fill="#000000" fill-rule="evenodd" fill-opacity="1" /><path clip-path="url(#clip900)" d="M 0 0 M125.454 1305.55 L133.093 1305.55 L133.093 1279.18 L124.782 1280.85 L124.782 1276.59 L133.046 1274.92 L137.722 1274.92 L137.722 1305.55 L145.361 1305.55 L145.361 1309.48 L125.454 1309.48 L125.454 1305.55 Z" fill="#000000" fill-rule="evenodd" fill-opacity="1" /><path clip-path="url(#clip900)" d="M 0 0 M160.43 1278 Q156.819 1278 154.991 1281.57 Q153.185 1285.11 153.185 1292.24 Q153.185 1299.35 154.991 1302.91 Q156.819 1306.45 160.43 1306.45 Q164.065 1306.45 165.87 1302.91 Q167.699 1299.35 167.699 1292.24 Q167.699 1285.11 165.87 1281.57 Q164.065 1278 160.43 1278 M160.43 1274.3 Q166.241 1274.3 169.296 1278.91 Q172.375 1283.49 172.375 1292.24 Q172.375 1300.97 169.296 1305.57 Q166.241 1310.16 160.43 1310.16 Q154.62 1310.16 151.542 1305.57 Q148.486 1300.97 148.486 1292.24 Q148.486 1283.49 151.542 1278.91 Q154.62 1274.3 160.43 1274.3 Z" fill="#000000" fill-rule="evenodd" fill-opacity="1" /><path clip-path="url(#clip900)" d="M 0 0 M185.07 1266.93 Q187.797 1267.52 189.321 1269.36 Q190.863 1271.2 190.863 1273.91 Q190.863 1278.07 188.004 1280.34 Q185.145 1282.62 179.879 1282.62 Q178.111 1282.62 176.23 1282.26 Q174.368 1281.92 172.375 1281.23 L172.375 1277.56 Q173.955 1278.48 175.835 1278.95 Q177.716 1279.42 179.766 1279.42 Q183.34 1279.42 185.202 1278.01 Q187.082 1276.6 187.082 1273.91 Q187.082 1271.43 185.333 1270.04 Q183.603 1268.63 180.5 1268.63 L177.227 1268.63 L177.227 1265.5 L180.65 1265.5 Q183.453 1265.5 184.938 1264.39 Q186.424 1263.27 186.424 1261.16 Q186.424 1259 184.882 1257.85 Q183.359 1256.68 180.5 1256.68 Q178.939 1256.68 177.152 1257.02 Q175.365 1257.36 173.221 1258.08 L173.221 1254.69 Q175.384 1254.09 177.265 1253.79 Q179.164 1253.49 180.838 1253.49 Q185.164 1253.49 187.684 1255.46 Q190.205 1257.42 190.205 1260.76 Q190.205 1263.1 188.869 1264.71 Q187.534 1266.31 185.07 1266.93 Z" fill="#000000" fill-rule="evenodd" fill-opacity="1" /><path clip-path="url(#clip900)" d="M 0 0 M203.878 1287.73 L201.997 1287.73 L201.978 1282.07 Q200.003 1282.04 198.029 1281.62 Q196.054 1281.19 194.06 1280.34 L194.06 1276.96 Q195.979 1278.16 197.935 1278.78 Q199.909 1279.38 201.997 1279.4 L201.997 1270.83 Q197.841 1270.15 195.941 1268.53 Q194.06 1266.91 194.06 1264.09 Q194.06 1261.03 196.11 1259.26 Q198.16 1257.49 201.997 1257.23 L201.997 1252.81 L203.878 1252.81 L203.878 1257.17 Q205.627 1257.25 207.263 1257.55 Q208.899 1257.83 210.461 1258.34 L210.461 1261.63 Q208.899 1260.84 207.244 1260.41 Q205.608 1259.97 203.878 1259.9 L203.878 1267.93 Q208.147 1268.59 210.16 1270.28 Q212.172 1271.97 212.172 1274.91 Q212.172 1278.09 210.028 1279.93 Q207.903 1281.75 203.878 1282.04 L203.878 1287.73 M201.997 1267.59 L201.997 1259.88 Q199.815 1260.13 198.668 1261.12 Q197.521 1262.12 197.521 1263.77 Q197.521 1265.39 198.574 1266.29 Q199.646 1267.2 201.997 1267.59 M203.878 1271.2 L203.878 1279.35 Q206.266 1279.03 207.47 1277.99 Q208.693 1276.96 208.693 1275.27 Q208.693 1273.61 207.527 1272.63 Q206.379 1271.65 203.878 1271.2 Z" fill="#000000" fill-rule="evenodd" fill-opacity="1" /><path clip-path="url(#clip900)" d="M 0 0 M108.463 917.367 L106.148 917.367 L106.125 910.4 Q103.695 910.353 101.264 909.844 Q98.8335 909.312 96.3798 908.27 L96.3798 904.103 Q98.7409 905.585 101.148 906.349 Q103.579 907.089 106.148 907.113 L106.148 896.557 Q101.033 895.724 98.6946 893.733 Q96.3798 891.742 96.3798 888.27 Q96.3798 884.497 98.903 882.321 Q101.426 880.145 106.148 879.821 L106.148 874.381 L108.463 874.381 L108.463 879.752 Q110.616 879.844 112.63 880.215 Q114.644 880.562 116.565 881.187 L116.565 885.238 Q114.644 884.266 112.607 883.733 Q110.593 883.201 108.463 883.108 L108.463 892.992 Q113.718 893.803 116.195 895.886 Q118.671 897.969 118.671 901.58 Q118.671 905.492 116.033 907.761 Q113.417 910.006 108.463 910.353 L108.463 917.367 M106.148 892.576 L106.148 883.085 Q103.463 883.386 102.051 884.613 Q100.639 885.84 100.639 887.877 Q100.639 889.867 101.935 890.978 Q103.255 892.09 106.148 892.576 M108.463 897.02 L108.463 907.043 Q111.403 906.65 112.884 905.377 Q114.389 904.103 114.389 902.02 Q114.389 899.983 112.954 898.779 Q111.542 897.576 108.463 897.02 Z" fill="#000000" fill-rule="evenodd" fill-opacity="1" /><path clip-path="url(#clip900)" d="M 0 0 M124.551 906.464 L132.19 906.464 L132.19 880.099 L123.88 881.766 L123.88 877.506 L132.144 875.84 L136.819 875.84 L136.819 906.464 L144.458 906.464 L144.458 910.4 L124.551 910.4 L124.551 906.464 Z" fill="#000000" fill-rule="evenodd" fill-opacity="1" /><path clip-path="url(#clip900)" d="M 0 0 M159.528 878.918 Q155.917 878.918 154.088 882.483 Q152.282 886.025 152.282 893.154 Q152.282 900.261 154.088 903.826 Q155.917 907.367 159.528 907.367 Q163.162 907.367 164.967 903.826 Q166.796 900.261 166.796 893.154 Q166.796 886.025 164.967 882.483 Q163.162 878.918 159.528 878.918 M159.528 875.215 Q165.338 875.215 168.393 879.821 Q171.472 884.404 171.472 893.154 Q171.472 901.881 168.393 906.488 Q165.338 911.071 159.528 911.071 Q153.717 911.071 150.639 906.488 Q147.583 901.881 147.583 893.154 Q147.583 884.404 150.639 879.821 Q153.717 875.215 159.528 875.215 Z" fill="#000000" fill-rule="evenodd" fill-opacity="1" /><path clip-path="url(#clip900)" d="M 0 0 M181.497 867.435 Q178.939 867.435 177.434 869.184 Q175.948 870.933 175.948 873.98 Q175.948 877.008 177.434 878.776 Q178.939 880.525 181.497 880.525 Q184.054 880.525 185.54 878.776 Q187.045 877.008 187.045 873.98 Q187.045 870.933 185.54 869.184 Q184.054 867.435 181.497 867.435 M189.038 855.53 L189.038 858.991 Q187.609 858.313 186.142 857.956 Q184.694 857.599 183.264 857.599 Q179.503 857.599 177.509 860.138 Q175.534 862.677 175.252 867.811 Q176.362 866.175 178.036 865.31 Q179.71 864.426 181.722 864.426 Q185.954 864.426 188.399 867.003 Q190.863 869.561 190.863 873.98 Q190.863 878.306 188.305 880.92 Q185.747 883.535 181.497 883.535 Q176.625 883.535 174.049 879.811 Q171.472 876.068 171.472 868.977 Q171.472 862.32 174.632 858.37 Q177.791 854.401 183.114 854.401 Q184.543 854.401 185.992 854.684 Q187.459 854.966 189.038 855.53 Z" fill="#000000" fill-rule="evenodd" fill-opacity="1" /><path clip-path="url(#clip900)" d="M 0 0 M203.878 888.65 L201.997 888.65 L201.978 882.989 Q200.003 882.952 198.029 882.538 Q196.054 882.105 194.06 881.259 L194.06 877.874 Q195.979 879.077 197.935 879.698 Q199.909 880.3 201.997 880.319 L201.997 871.742 Q197.841 871.065 195.941 869.448 Q194.06 867.83 194.06 865.009 Q194.06 861.943 196.11 860.175 Q198.16 858.408 201.997 858.144 L201.997 853.724 L203.878 853.724 L203.878 858.088 Q205.627 858.163 207.263 858.464 Q208.899 858.746 210.461 859.254 L210.461 862.545 Q208.899 861.755 207.244 861.323 Q205.608 860.89 203.878 860.815 L203.878 868.846 Q208.147 869.504 210.16 871.197 Q212.172 872.889 212.172 875.824 Q212.172 879.002 210.028 880.845 Q207.903 882.67 203.878 882.952 L203.878 888.65 M201.997 868.507 L201.997 860.796 Q199.815 861.041 198.668 862.037 Q197.521 863.034 197.521 864.689 Q197.521 866.307 198.574 867.21 Q199.646 868.112 201.997 868.507 M203.878 872.118 L203.878 880.262 Q206.266 879.942 207.47 878.908 Q208.693 877.874 208.693 876.181 Q208.693 874.526 207.527 873.548 Q206.379 872.57 203.878 872.118 Z" fill="#000000" fill-rule="evenodd" fill-opacity="1" /><path clip-path="url(#clip900)" d="M 0 0 M108.482 518.283 L106.167 518.283 L106.144 511.315 Q103.713 511.269 101.283 510.76 Q98.8523 510.227 96.3986 509.185 L96.3986 505.019 Q98.7597 506.5 101.167 507.264 Q103.598 508.005 106.167 508.028 L106.167 497.473 Q101.051 496.639 98.7134 494.649 Q96.3986 492.658 96.3986 489.186 Q96.3986 485.412 98.9218 483.237 Q101.445 481.061 106.167 480.737 L106.167 475.297 L108.482 475.297 L108.482 480.667 Q110.635 480.76 112.649 481.13 Q114.662 481.477 116.584 482.102 L116.584 486.153 Q114.662 485.181 112.625 484.649 Q110.612 484.116 108.482 484.024 L108.482 493.908 Q113.737 494.718 116.213 496.801 Q118.69 498.885 118.69 502.496 Q118.69 506.408 116.051 508.676 Q113.436 510.922 108.482 511.269 L108.482 518.283 M106.167 493.491 L106.167 484 Q103.482 484.301 102.07 485.528 Q100.658 486.755 100.658 488.792 Q100.658 490.783 101.954 491.894 Q103.274 493.005 106.167 493.491 M108.482 497.936 L108.482 507.959 Q111.422 507.565 112.903 506.292 Q114.408 505.019 114.408 502.936 Q114.408 500.898 112.973 499.695 Q111.561 498.491 108.482 497.936 Z" fill="#000000" fill-rule="evenodd" fill-opacity="1" /><path clip-path="url(#clip900)" d="M 0 0 M124.57 507.38 L132.209 507.38 L132.209 481.014 L123.898 482.681 L123.898 478.422 L132.162 476.755 L136.838 476.755 L136.838 507.38 L144.477 507.38 L144.477 511.315 L124.57 511.315 L124.57 507.38 Z" fill="#000000" fill-rule="evenodd" fill-opacity="1" /><path clip-path="url(#clip900)" d="M 0 0 M159.546 479.834 Q155.935 479.834 154.107 483.399 Q152.301 486.94 152.301 494.07 Q152.301 501.176 154.107 504.741 Q155.935 508.283 159.546 508.283 Q163.181 508.283 164.986 504.741 Q166.815 501.176 166.815 494.07 Q166.815 486.94 164.986 483.399 Q163.181 479.834 159.546 479.834 M159.546 476.13 Q165.357 476.13 168.412 480.737 Q171.491 485.32 171.491 494.07 Q171.491 502.797 168.412 507.403 Q165.357 511.986 159.546 511.986 Q153.736 511.986 150.658 507.403 Q147.602 502.797 147.602 494.07 Q147.602 485.32 150.658 480.737 Q153.736 476.13 159.546 476.13 Z" fill="#000000" fill-rule="evenodd" fill-opacity="1" /><path clip-path="url(#clip900)" d="M 0 0 M173.296 483.322 L173.296 479.861 Q174.726 480.538 176.193 480.895 Q177.66 481.253 179.07 481.253 Q182.832 481.253 184.807 478.733 Q186.8 476.194 187.082 471.04 Q185.992 472.658 184.318 473.523 Q182.644 474.388 180.613 474.388 Q176.4 474.388 173.936 471.849 Q171.491 469.291 171.491 464.871 Q171.491 460.545 174.049 457.931 Q176.607 455.317 180.857 455.317 Q185.728 455.317 188.286 459.06 Q190.863 462.784 190.863 469.893 Q190.863 476.532 187.703 480.501 Q184.562 484.45 179.24 484.45 Q177.81 484.45 176.343 484.168 Q174.876 483.886 173.296 483.322 M180.857 471.416 Q183.415 471.416 184.901 469.667 Q186.405 467.918 186.405 464.871 Q186.405 461.843 184.901 460.094 Q183.415 458.326 180.857 458.326 Q178.299 458.326 176.795 460.094 Q175.309 461.843 175.309 464.871 Q175.309 467.918 176.795 469.667 Q178.299 471.416 180.857 471.416 Z" fill="#000000" fill-rule="evenodd" fill-opacity="1" /><path clip-path="url(#clip900)" d="M 0 0 M203.878 489.566 L201.997 489.566 L201.978 483.905 Q200.003 483.867 198.029 483.453 Q196.054 483.021 194.06 482.174 L194.06 478.789 Q195.979 479.993 197.935 480.613 Q199.909 481.215 201.997 481.234 L201.997 472.658 Q197.841 471.981 195.941 470.363 Q194.06 468.746 194.06 465.924 Q194.06 462.859 196.11 461.091 Q198.16 459.323 201.997 459.06 L201.997 454.64 L203.878 454.64 L203.878 459.003 Q205.627 459.078 207.263 459.379 Q208.899 459.661 210.461 460.169 L210.461 463.461 Q208.899 462.671 207.244 462.238 Q205.608 461.806 203.878 461.73 L203.878 469.761 Q208.147 470.42 210.16 472.112 Q212.172 473.805 212.172 476.739 Q212.172 479.917 210.028 481.761 Q207.903 483.585 203.878 483.867 L203.878 489.566 M201.997 469.423 L201.997 461.712 Q199.815 461.956 198.668 462.953 Q197.521 463.95 197.521 465.605 Q197.521 467.222 198.574 468.125 Q199.646 469.028 201.997 469.423 M203.878 473.034 L203.878 481.178 Q206.266 480.858 207.47 479.823 Q208.693 478.789 208.693 477.096 Q208.693 475.441 207.527 474.463 Q206.379 473.485 203.878 473.034 Z" fill="#000000" fill-rule="evenodd" fill-opacity="1" /><path clip-path="url(#clip900)" d="M 0 0 M93.6802 119.198 L91.3654 119.198 L91.3422 112.231 Q88.9117 112.184 86.4812 111.675 Q84.0506 111.143 81.5969 110.101 L81.5969 105.934 Q83.958 107.416 86.3654 108.18 Q88.796 108.92 91.3654 108.944 L91.3654 98.388 Q86.2497 97.5547 83.9117 95.564 Q81.5969 93.5732 81.5969 90.101 Q81.5969 86.3279 84.1201 84.152 Q86.6432 81.9761 91.3654 81.652 L91.3654 76.2122 L93.6802 76.2122 L93.6802 81.5826 Q95.833 81.6752 97.8468 82.0455 Q99.8607 82.3928 101.782 83.0177 L101.782 87.0687 Q99.8607 86.0964 97.8237 85.564 Q95.8098 85.0316 93.6802 84.939 L93.6802 94.8232 Q98.9348 95.6334 101.412 97.7167 Q103.888 99.8001 103.888 103.411 Q103.888 107.323 101.25 109.592 Q98.6339 111.837 93.6802 112.184 L93.6802 119.198 M91.3654 94.4066 L91.3654 84.9159 Q88.6802 85.2168 87.2682 86.4437 Q85.8562 87.6705 85.8562 89.7075 Q85.8562 91.6983 87.1524 92.8094 Q88.4719 93.9205 91.3654 94.4066 M93.6802 98.851 L93.6802 108.874 Q96.62 108.481 98.1015 107.207 Q99.6061 105.934 99.6061 103.851 Q99.6061 101.814 98.1709 100.61 Q96.7589 99.4066 93.6802 98.851 Z" fill="#000000" fill-rule="evenodd" fill-opacity="1" /><path clip-path="url(#clip900)" d="M 0 0 M109.768 108.295 L117.407 108.295 L117.407 81.9298 L109.097 83.5964 L109.097 79.3372 L117.361 77.6706 L122.037 77.6706 L122.037 108.295 L129.675 108.295 L129.675 112.231 L109.768 112.231 L109.768 108.295 Z" fill="#000000" fill-rule="evenodd" fill-opacity="1" /><path clip-path="url(#clip900)" d="M 0 0 M144.745 80.7492 Q141.134 80.7492 139.305 84.314 Q137.499 87.8557 137.499 94.9853 Q137.499 102.092 139.305 105.657 Q141.134 109.198 144.745 109.198 Q148.379 109.198 150.185 105.657 Q152.013 102.092 152.013 94.9853 Q152.013 87.8557 150.185 84.314 Q148.379 80.7492 144.745 80.7492 M144.745 77.0456 Q150.555 77.0456 153.61 81.652 Q156.689 86.2353 156.689 94.9853 Q156.689 103.712 153.61 108.319 Q150.555 112.902 144.745 112.902 Q138.935 112.902 135.856 108.319 Q132.8 103.712 132.8 94.9853 Q132.8 86.2353 135.856 81.652 Q138.935 77.0456 144.745 77.0456 Z" fill="#000000" fill-rule="evenodd" fill-opacity="1" /><path clip-path="url(#clip900)" d="M 0 0 M157.235 81.6228 L163.441 81.6228 L163.441 60.2008 L156.689 61.5549 L156.689 58.0943 L163.403 56.7402 L167.203 56.7402 L167.203 81.6228 L173.409 81.6228 L173.409 84.8202 L157.235 84.8202 L157.235 81.6228 Z" fill="#000000" fill-rule="evenodd" fill-opacity="1" /><path clip-path="url(#clip900)" d="M 0 0 M180.801 81.6228 L194.06 81.6228 L194.06 84.8202 L176.23 84.8202 L176.23 81.6228 Q178.393 79.3847 182.117 75.6232 Q185.86 71.8428 186.819 70.7519 Q188.644 68.7019 189.358 67.2913 Q190.092 65.8619 190.092 64.489 Q190.092 62.2508 188.512 60.8402 Q186.951 59.4297 184.431 59.4297 Q182.644 59.4297 180.65 60.0503 Q178.675 60.671 176.418 61.9311 L176.418 58.0943 Q178.713 57.1727 180.707 56.7025 Q182.7 56.2323 184.355 56.2323 Q188.719 56.2323 191.314 58.414 Q193.91 60.5957 193.91 64.2445 Q193.91 65.9748 193.251 67.5358 Q192.612 69.0781 190.9 71.1845 Q190.43 71.7299 187.91 74.3442 Q185.39 76.9397 180.801 81.6228 Z" fill="#000000" fill-rule="evenodd" fill-opacity="1" /><path clip-path="url(#clip900)" d="M 0 0 M203.878 90.4813 L201.997 90.4813 L201.978 84.8202 Q200.003 84.7825 198.029 84.3688 Q196.054 83.9362 194.06 83.0898 L194.06 79.7044 Q195.979 80.9081 197.935 81.5288 Q199.909 82.1306 201.997 82.1495 L201.997 73.5731 Q197.841 72.896 195.941 71.2786 Q194.06 69.6611 194.06 66.8399 Q194.06 63.7743 196.11 62.0063 Q198.16 60.2384 201.997 59.9751 L201.997 55.5553 L203.878 55.5553 L203.878 59.9187 Q205.627 59.9939 207.263 60.2948 Q208.899 60.5769 210.461 61.0848 L210.461 64.3761 Q208.899 63.5862 207.244 63.1536 Q205.608 62.721 203.878 62.6458 L203.878 70.6767 Q208.147 71.335 210.16 73.0277 Q212.172 74.7204 212.172 77.6544 Q212.172 80.8329 210.028 82.6761 Q207.903 84.5004 203.878 84.7825 L203.878 90.4813 M201.997 70.3382 L201.997 62.627 Q199.815 62.8715 198.668 63.8683 Q197.521 64.8651 197.521 66.5202 Q197.521 68.1377 198.574 69.0404 Q199.646 69.9432 201.997 70.3382 M203.878 73.9493 L203.878 82.093 Q206.266 81.7733 207.47 80.7389 Q208.693 79.7044 208.693 78.0117 Q208.693 76.3567 207.527 75.3787 Q206.379 74.4007 203.878 73.9493 Z" fill="#000000" fill-rule="evenodd" fill-opacity="1" /><path clip-path="url(#clip900)" d="M 0 0 M1176.48 1502.44 L1182.9 1502.44 L1182.9 1549.96 L1176.48 1549.96 L1176.48 1502.44 Z" fill="#000000" fill-rule="evenodd" fill-opacity="1" /><path clip-path="url(#clip900)" d="M 0 0 M1194.84 1504.19 L1194.84 1514.31 L1206.9 1514.31 L1206.9 1518.86 L1194.84 1518.86 L1194.84 1538.21 Q1194.84 1542.57 1196.02 1543.81 Q1197.23 1545.05 1200.89 1545.05 L1206.9 1545.05 L1206.9 1549.96 L1200.89 1549.96 Q1194.11 1549.96 1191.53 1547.44 Q1188.95 1544.9 1188.95 1538.21 L1188.95 1518.86 L1184.66 1518.86 L1184.66 1514.31 L1188.95 1514.31 L1188.95 1504.19 L1194.84 1504.19 Z" fill="#000000" fill-rule="evenodd" fill-opacity="1" /><path clip-path="url(#clip900)" d="M 0 0 M1243.54 1530.67 L1243.54 1533.53 L1216.61 1533.53 Q1216.99 1539.58 1220.24 1542.76 Q1223.52 1545.91 1229.34 1545.91 Q1232.72 1545.91 1235.87 1545.09 Q1239.05 1544.26 1242.17 1542.6 L1242.17 1548.14 Q1239.02 1549.48 1235.71 1550.18 Q1232.4 1550.88 1228.99 1550.88 Q1220.46 1550.88 1215.47 1545.91 Q1210.5 1540.95 1210.5 1532.48 Q1210.5 1523.73 1215.21 1518.61 Q1219.95 1513.45 1227.97 1513.45 Q1235.17 1513.45 1239.34 1518.1 Q1243.54 1522.71 1243.54 1530.67 M1237.68 1528.95 Q1237.62 1524.14 1234.98 1521.28 Q1232.37 1518.41 1228.04 1518.41 Q1223.14 1518.41 1220.18 1521.18 Q1217.25 1523.95 1216.8 1528.98 L1237.68 1528.95 Z" fill="#000000" fill-rule="evenodd" fill-opacity="1" /><path clip-path="url(#clip900)" d="M 0 0 M1270.34 1519.78 Q1269.35 1519.21 1268.17 1518.96 Q1267.03 1518.67 1265.63 1518.67 Q1260.66 1518.67 1257.99 1521.92 Q1255.35 1525.13 1255.35 1531.18 L1255.35 1549.96 L1249.46 1549.96 L1249.46 1514.31 L1255.35 1514.31 L1255.35 1519.85 Q1257.19 1516.6 1260.15 1515.04 Q1263.11 1513.45 1267.35 1513.45 Q1267.95 1513.45 1268.68 1513.54 Q1269.41 1513.61 1270.31 1513.77 L1270.34 1519.78 Z" fill="#000000" fill-rule="evenodd" fill-opacity="1" /><path clip-path="url(#clip900)" d="M 0 0 M1292.68 1532.04 Q1285.58 1532.04 1282.85 1533.66 Q1280.11 1535.28 1280.11 1539.2 Q1280.11 1542.32 1282.15 1544.16 Q1284.22 1545.98 1287.75 1545.98 Q1292.62 1545.98 1295.55 1542.54 Q1298.51 1539.07 1298.51 1533.34 L1298.51 1532.04 L1292.68 1532.04 M1304.36 1529.62 L1304.36 1549.96 L1298.51 1549.96 L1298.51 1544.55 Q1296.5 1547.79 1293.51 1549.35 Q1290.52 1550.88 1286.19 1550.88 Q1280.71 1550.88 1277.47 1547.82 Q1274.25 1544.74 1274.25 1539.58 Q1274.25 1533.56 1278.26 1530.51 Q1282.31 1527.45 1290.29 1527.45 L1298.51 1527.45 L1298.51 1526.88 Q1298.51 1522.84 1295.83 1520.64 Q1293.19 1518.41 1288.38 1518.41 Q1285.33 1518.41 1282.43 1519.15 Q1279.54 1519.88 1276.86 1521.34 L1276.86 1515.93 Q1280.08 1514.69 1283.1 1514.09 Q1286.12 1513.45 1288.99 1513.45 Q1296.72 1513.45 1300.54 1517.46 Q1304.36 1521.47 1304.36 1529.62 Z" fill="#000000" fill-rule="evenodd" fill-opacity="1" /><path clip-path="url(#clip900)" d="M 0 0 M1316.3 1504.19 L1316.3 1514.31 L1328.36 1514.31 L1328.36 1518.86 L1316.3 1518.86 L1316.3 1538.21 Q1316.3 1542.57 1317.48 1543.81 Q1318.69 1545.05 1322.35 1545.05 L1328.36 1545.05 L1328.36 1549.96 L1322.35 1549.96 Q1315.57 1549.96 1312.99 1547.44 Q1310.41 1544.9 1310.41 1538.21 L1310.41 1518.86 L1306.11 1518.86 L1306.11 1514.31 L1310.41 1514.31 L1310.41 1504.19 L1316.3 1504.19 Z" fill="#000000" fill-rule="evenodd" fill-opacity="1" /><path clip-path="url(#clip900)" d="M 0 0 M1334.5 1514.31 L1340.36 1514.31 L1340.36 1549.96 L1334.5 1549.96 L1334.5 1514.31 M1334.5 1500.43 L1340.36 1500.43 L1340.36 1507.85 L1334.5 1507.85 L1334.5 1500.43 Z" fill="#000000" fill-rule="evenodd" fill-opacity="1" /><path clip-path="url(#clip900)" d="M 0 0 M1360.32 1518.41 Q1355.61 1518.41 1352.87 1522.11 Q1350.13 1525.77 1350.13 1532.16 Q1350.13 1538.56 1352.84 1542.25 Q1355.57 1545.91 1360.32 1545.91 Q1365 1545.91 1367.73 1542.22 Q1370.47 1538.53 1370.47 1532.16 Q1370.47 1525.83 1367.73 1522.14 Q1365 1518.41 1360.32 1518.41 M1360.32 1513.45 Q1367.96 1513.45 1372.32 1518.41 Q1376.68 1523.38 1376.68 1532.16 Q1376.68 1540.92 1372.32 1545.91 Q1367.96 1550.88 1360.32 1550.88 Q1352.65 1550.88 1348.29 1545.91 Q1343.96 1540.92 1343.96 1532.16 Q1343.96 1523.38 1348.29 1518.41 Q1352.65 1513.45 1360.32 1513.45 Z" fill="#000000" fill-rule="evenodd" fill-opacity="1" /><path clip-path="url(#clip900)" d="M 0 0 M1412.45 1528.44 L1412.45 1549.96 L1406.6 1549.96 L1406.6 1528.63 Q1406.6 1523.57 1404.62 1521.06 Q1402.65 1518.54 1398.7 1518.54 Q1393.96 1518.54 1391.22 1521.57 Q1388.49 1524.59 1388.49 1529.81 L1388.49 1549.96 L1382.6 1549.96 L1382.6 1514.31 L1388.49 1514.31 L1388.49 1519.85 Q1390.59 1516.63 1393.42 1515.04 Q1396.28 1513.45 1400.01 1513.45 Q1406.15 1513.45 1409.3 1517.27 Q1412.45 1521.06 1412.45 1528.44 Z" fill="#000000" fill-rule="evenodd" fill-opacity="1" /><path clip-path="url(#clip900)" d="M 0 0 M40.4842 957.129 L40.4842 948.471 L80.238 927.401 L40.4842 927.401 L40.4842 921.162 L88.0042 921.162 L88.0042 929.82 L48.2503 950.89 L88.0042 950.89 L88.0042 957.129 L40.4842 957.129 Z" fill="#000000" fill-rule="evenodd" fill-opacity="1" /><path clip-path="url(#clip900)" d="M 0 0 M68.7161 884.528 L71.5806 884.528 L71.5806 911.455 Q77.6281 911.073 80.8109 907.826 Q83.9619 904.548 83.9619 898.723 Q83.9619 895.349 83.1344 892.198 Q82.3069 889.015 80.6518 885.896 L86.1899 885.896 Q87.5267 889.047 88.227 892.357 Q88.9272 895.668 88.9272 899.073 Q88.9272 907.603 83.9619 912.6 Q78.9967 917.566 70.5303 917.566 Q61.7774 917.566 56.6531 912.855 Q51.4968 908.113 51.4968 900.092 Q51.4968 892.899 56.1438 888.729 Q60.7589 884.528 68.7161 884.528 M66.9973 890.384 Q62.1912 890.448 59.3266 893.09 Q56.4621 895.699 56.4621 900.028 Q56.4621 904.93 59.2312 907.89 Q62.0002 910.818 67.0292 911.264 L66.9973 890.384 Z" fill="#000000" fill-rule="evenodd" fill-opacity="1" /><path clip-path="url(#clip900)" d="M 0 0 M69.7664 854.927 Q63.4007 854.927 59.8996 857.569 Q56.3984 860.179 56.3984 864.921 Q56.3984 869.632 59.8996 872.274 Q63.4007 874.884 69.7664 874.884 Q76.1003 874.884 79.6014 872.274 Q83.1026 869.632 83.1026 864.921 Q83.1026 860.179 79.6014 857.569 Q76.1003 854.927 69.7664 854.927 M83.58 849.071 Q92.683 849.071 97.1071 853.113 Q101.563 857.155 101.563 865.494 Q101.563 868.582 101.086 871.319 Q100.64 874.056 99.6852 876.634 L93.9879 876.634 Q95.3884 874.056 96.0568 871.542 Q96.7252 869.027 96.7252 866.417 Q96.7252 860.656 93.7015 857.792 Q90.7096 854.927 84.6303 854.927 L81.7339 854.927 Q84.885 856.741 86.4446 859.574 Q88.0042 862.407 88.0042 866.354 Q88.0042 872.91 83.0071 876.921 Q78.01 880.931 69.7664 880.931 Q61.491 880.931 56.4939 876.921 Q51.4968 872.91 51.4968 866.354 Q51.4968 862.407 53.0564 859.574 Q54.616 856.741 57.7671 854.927 L52.3562 854.927 L52.3562 849.071 L83.58 849.071 Z" fill="#000000" fill-rule="evenodd" fill-opacity="1" /><path clip-path="url(#clip900)" d="M 0 0 M70.0847 826.727 Q70.0847 833.825 71.7079 836.562 Q73.3312 839.299 77.2461 839.299 Q80.3653 839.299 82.2114 837.262 Q84.0256 835.193 84.0256 831.66 Q84.0256 826.791 80.5881 823.862 Q77.1188 820.902 71.3897 820.902 L70.0847 820.902 L70.0847 826.727 M67.6657 815.046 L88.0042 815.046 L88.0042 820.902 L82.5933 820.902 Q85.8398 822.908 87.3994 825.9 Q88.9272 828.891 88.9272 833.22 Q88.9272 838.695 85.8716 841.941 Q82.7843 845.156 77.6281 845.156 Q71.6125 845.156 68.5569 841.145 Q65.5014 837.103 65.5014 829.114 L65.5014 820.902 L64.9285 820.902 Q60.8862 820.902 58.6901 823.576 Q56.4621 826.218 56.4621 831.024 Q56.4621 834.079 57.1941 836.976 Q57.9262 839.872 59.3903 842.546 L53.9795 842.546 Q52.7381 839.331 52.1334 836.307 Q51.4968 833.284 51.4968 830.419 Q51.4968 822.685 55.5072 818.865 Q59.5176 815.046 67.6657 815.046 Z" fill="#000000" fill-rule="evenodd" fill-opacity="1" /><path clip-path="url(#clip900)" d="M 0 0 M42.2347 803.11 L52.3562 803.11 L52.3562 791.047 L56.9077 791.047 L56.9077 803.11 L76.2594 803.11 Q80.6199 803.11 81.8613 801.933 Q83.1026 800.723 83.1026 797.063 L83.1026 791.047 L88.0042 791.047 L88.0042 797.063 Q88.0042 803.842 85.4897 806.42 Q82.9434 808.999 76.2594 808.999 L56.9077 808.999 L56.9077 813.295 L52.3562 813.295 L52.3562 808.999 L42.2347 808.999 L42.2347 803.11 Z" fill="#000000" fill-rule="evenodd" fill-opacity="1" /><path clip-path="url(#clip900)" d="M 0 0 M52.3562 784.904 L52.3562 779.048 L88.0042 779.048 L88.0042 784.904 L52.3562 784.904 M38.479 784.904 L38.479 779.048 L45.895 779.048 L45.895 784.904 L38.479 784.904 Z" fill="#000000" fill-rule="evenodd" fill-opacity="1" /><path clip-path="url(#clip900)" d="M 0 0 M52.3562 777.106 L52.3562 770.9 L82.275 759.76 L52.3562 748.62 L52.3562 742.413 L88.0042 755.781 L88.0042 763.738 L52.3562 777.106 Z" fill="#000000" fill-rule="evenodd" fill-opacity="1" /><path clip-path="url(#clip900)" d="M 0 0 M68.7161 705.779 L71.5806 705.779 L71.5806 732.706 Q77.6281 732.324 80.8109 729.077 Q83.9619 725.799 83.9619 719.974 Q83.9619 716.6 83.1344 713.449 Q82.3069 710.266 80.6518 707.147 L86.1899 707.147 Q87.5267 710.298 88.227 713.608 Q88.9272 716.919 88.9272 720.324 Q88.9272 728.854 83.9619 733.851 Q78.9967 738.817 70.5303 738.817 Q61.7774 738.817 56.6531 734.106 Q51.4968 729.364 51.4968 721.343 Q51.4968 714.15 56.1438 709.98 Q60.7589 705.779 68.7161 705.779 M66.9973 711.635 Q62.1912 711.699 59.3266 714.34 Q56.4621 716.95 56.4621 721.279 Q56.4621 726.181 59.2312 729.141 Q62.0002 732.069 67.0292 732.515 L66.9973 711.635 Z" fill="#000000" fill-rule="evenodd" fill-opacity="1" /><path clip-path="url(#clip900)" d="M 0 0 M40.4842 678.661 L40.4842 648.615 L45.895 648.615 L45.895 672.231 L59.9632 672.231 L59.9632 649.601 L65.3741 649.601 L65.3741 672.231 L82.5933 672.231 L82.5933 648.042 L88.0042 648.042 L88.0042 678.661 L40.4842 678.661 Z" fill="#000000" fill-rule="evenodd" fill-opacity="1" /><path clip-path="url(#clip900)" d="M 0 0 M40.4842 641.644 L40.4842 635.215 L82.5933 635.215 L82.5933 612.075 L88.0042 612.075 L88.0042 641.644 L40.4842 641.644 Z" fill="#000000" fill-rule="evenodd" fill-opacity="1" /><path clip-path="url(#clip900)" d="M 0 0 M65.3104 599.249 L82.7206 599.249 L82.7206 588.936 Q82.7206 583.748 80.5881 581.265 Q78.4238 578.751 73.9996 578.751 Q69.5436 578.751 67.4429 581.265 Q65.3104 583.748 65.3104 588.936 L65.3104 599.249 M45.7677 599.249 L60.0905 599.249 L60.0905 589.732 Q60.0905 585.021 58.34 582.73 Q56.5576 580.406 52.9291 580.406 Q49.3325 580.406 47.5501 582.73 Q45.7677 585.021 45.7677 589.732 L45.7677 599.249 M40.4842 605.678 L40.4842 589.254 Q40.4842 581.902 43.5397 577.923 Q46.5952 573.945 52.2289 573.945 Q56.5894 573.945 59.1675 575.982 Q61.7456 578.019 62.3822 581.966 Q63.4007 577.223 66.6472 574.613 Q69.8619 571.971 74.6998 571.971 Q81.0655 571.971 84.5348 576.3 Q88.0042 580.629 88.0042 588.618 L88.0042 605.678 L40.4842 605.678 Z" fill="#000000" fill-rule="evenodd" fill-opacity="1" /><path clip-path="url(#clip900)" d="M 0 0 M44.8447 547.432 Q44.8447 554.434 50.0645 558.572 Q55.2844 562.678 64.2919 562.678 Q73.2675 562.678 78.4874 558.572 Q83.7073 554.434 83.7073 547.432 Q83.7073 540.429 78.4874 536.355 Q73.2675 532.249 64.2919 532.249 Q55.2844 532.249 50.0645 536.355 Q44.8447 540.429 44.8447 547.432 M39.6248 547.432 Q39.6248 537.438 46.3406 531.454 Q53.0246 525.47 64.2919 525.47 Q75.5274 525.47 82.2432 531.454 Q88.9272 537.438 88.9272 547.432 Q88.9272 557.458 82.2432 563.473 Q75.5592 569.457 64.2919 569.457 Q53.0246 569.457 46.3406 563.473 Q39.6248 557.458 39.6248 547.432 Z" fill="#000000" fill-rule="evenodd" fill-opacity="1" /><polyline clip-path="url(#clip900)" style="stroke:#009af9; stroke-width:4; stroke-opacity:1; fill:none" points="
  2400,-2.48337e+15 4800,-1.282e+15 7200,-6.61237e+14 9600,-3.47236e+14 12000,-1.68144e+14 14400,-8.39479e+13 16800,-3.94137e+13 19200,-2.0315e+13 21600,-1.04195e+13 24000,-5.25698e+12 
  26400,-2.5795e+12 28800,-1.27745e+12 31200,-6.46339e+11 33600,-3.26743e+11 36000,-1.64932e+11 38400,-8.11626e+10 40800,-3.90625e+10 43200,-1.92891e+10 45600,-9.73642e+09 48000,-5.07279e+09 
  50400,-2.52363e+09 52800,-1.30618e+09 55200,-6.68836e+08 57600,-3.3664e+08 60000,-1.64857e+08 62400,-8.3888e+07 64800,-4.42889e+07 67200,-2.17144e+07 69600,-1.1031e+07 72000,-5.67072e+06 
  74400,-2.54091e+06 76800,-1.15673e+06 79200,-521929 81600,-359309 84000,-354028 86400,-354023 88800,-354029 91200,-354019 93600,-354024 96000,-354013 
  98400,-354019 100800,-354025 103200,-354018 105600,-354028 108000,-354028 110400,-354024 112800,-354018 115200,-354030 117600,-354046 120000,-354040 
  122400,-354043 124800,-354022 127200,-354012 129600,-354023 132000,-354028 134400,-354026 136800,-354015 139200,-354026 141600,-354017 144000,-354023 
  
  "/>
</svg>
